<svg width="142" height="54" viewBox="0 0 142 54" fill="none" xmlns="http://www.w3.org/2000/svg">
<g opacity="0.56">
<path d="M22.0597 12.849L11.0283 6.42449L0 12.849V6.42449L11.0298 0L22.0613 6.42449V12.849H22.0597Z" fill="white" fill-opacity="0.76"/>
<path d="M0 18.2439H5.77791V32.406C5.77791 36.0649 8.48631 37.8485 11.0298 37.8485C13.5954 37.8485 16.2833 36.0174 16.2833 32.3569V18.2439H22.0613V32.7434C22.0613 36.1141 21.0109 38.7149 18.9101 40.4984C16.8078 42.2804 14.1826 43.1484 10.9812 43.1484C7.78291 43.1484 5.15616 42.2819 3.10406 40.4984C1.05039 38.7165 0 36.2123 0 32.8875V18.2439ZM72.0135 35.8448C70.2644 37.4161 68.272 38.1859 66.0001 38.1859C61.855 38.1859 59.076 35.8036 58.762 32.1146H77.4303C77.4303 32.1146 77.5559 30.9235 77.5559 29.8052C77.5559 26.3363 76.4568 23.4456 74.2116 21.0856C72.0166 18.7255 69.1528 17.5692 65.6656 17.5692C61.9901 17.5692 58.9802 18.7255 56.5921 21.0856C54.2527 23.4456 53.0594 26.528 53.0594 30.3833V30.5734C53.0594 34.3796 54.2527 37.4145 56.5921 39.6795C58.9315 41.943 62.0356 43.0993 65.8085 43.0993C70.1953 43.0993 73.6856 41.3538 76.3045 38.3443L72.0135 35.8448ZM61.0323 24.0238C62.3198 23.0116 63.8977 22.4826 65.6641 22.4826C67.3346 22.4826 68.7195 23.0116 69.9143 24.0729C71.0542 25.0391 71.6696 26.2255 71.723 27.5892H58.9096C59.0948 26.1795 59.8014 24.9916 61.0339 24.0254L61.0323 24.0238ZM130.176 46.3717C127.832 51.9551 125.379 53.8543 121.619 53.8543H119.012V48.6874H121.119C122.413 48.6874 123.616 48.1964 124.762 45.529L125.908 42.8585L116.023 18.2439H121.897L128.916 35.9715L136.128 18.2439H142L130.177 46.3717H130.176ZM44.5543 8.94775V20.4425C42.6608 18.7318 39.7153 17.7133 36.8671 17.7133C33.4758 17.7133 30.6119 18.9171 28.2725 21.3722C25.9802 23.7814 24.834 26.7672 24.834 30.3802C24.834 33.9947 25.9802 36.9805 28.2725 39.4372C30.6119 41.8464 33.4773 43.0518 36.8671 43.0518C40.7767 43.0518 43.248 41.5011 44.5543 40.2862V42.5211H50.2851V8.94934H44.5543V8.94775ZM42.835 35.6816C41.4502 37.0787 39.6839 37.8025 37.6302 37.8025C35.5765 37.8025 33.906 37.0787 32.5212 35.6816C31.1866 34.2846 30.5162 32.5027 30.5162 30.3833C30.5162 28.2624 31.185 26.4805 32.5212 25.0834C33.906 23.6864 35.5765 22.9641 37.6302 22.9641C39.6839 22.9641 41.4502 23.6864 42.835 25.0834C44.267 26.4805 44.9861 28.2624 44.9861 30.3833C44.9861 32.5027 44.267 34.2846 42.835 35.6816ZM107.114 17.7624C102.762 17.7624 100.5 19.584 98.9499 21.339C98.3297 20.1463 96.5837 17.7624 92.5047 17.7624C89.0568 17.7624 87.0251 19.5206 86.0108 20.7719V18.2471H80.3302V42.5243H86.0108V28.5539C86.0108 25.2783 88.0174 22.9182 90.6896 22.9182C93.4137 22.9182 94.9885 24.99 94.9885 28.3131V42.5227H100.671V28.5523C100.671 25.2292 102.627 22.9166 105.444 22.9166C108.166 22.9166 109.741 24.9884 109.741 28.3099V42.5211H115.472V27.4926C115.472 21.1632 112.099 17.764 107.114 17.764V17.7624Z" fill="white"/>
</g>
</svg>
