<svg width="36" height="35" viewBox="0 0 36 35" fill="none" xmlns="http://www.w3.org/2000/svg">
<path d="M13.05 26.25H9.225V14.5469H13.05V26.25ZM11.1375 12.9062C9.9 12.9062 9 12.0312 9 10.8281C9 9.625 10.0125 8.75 11.1375 8.75C12.375 8.75 13.275 9.625 13.275 10.8281C13.275 12.0312 12.375 12.9062 11.1375 12.9062ZM27 26.25H23.175V19.9063C23.175 18.0469 22.3875 17.5 21.2625 17.5C20.1375 17.5 19.0125 18.375 19.0125 20.0156V26.25H15.1875V14.5469H18.7875V16.1875C19.125 15.4219 20.475 14.2188 22.3875 14.2188C24.525 14.2188 26.775 15.4219 26.775 19.0312V26.25H27Z" fill="white"/>
</svg>
