<svg width="220" height="46" viewBox="0 0 220 46" fill="none" xmlns="http://www.w3.org/2000/svg">
<path d="M0 0V21.8592H22.3318V0H0ZM24.6627 0V21.8592H46.9945V0H24.6627ZM205.865 7.1673C204.444 7.1673 203.205 7.48837 202.076 8.02326C200.947 8.62946 200.109 9.44947 199.49 10.5549C198.87 11.6247 198.543 12.8373 198.543 14.228V16.9735H195.228V20.7532H198.543V36.7287H203.315V20.7894H210.455V30.9522C210.455 35.1243 212.459 37.228 216.466 37.228C217.122 37.228 217.814 37.1212 218.47 37.0142C219.162 36.8716 219.672 36.693 219.964 36.5504L220 36.5149V32.6989L219.818 32.8417C219.526 33.02 219.271 33.1631 218.834 33.27C218.47 33.377 218.142 33.4121 217.887 33.4121C216.94 33.4121 216.284 33.1983 215.811 32.6634C215.373 32.1642 215.155 31.3442 215.155 30.1318V20.7894H220V16.9735H215.228V11.1253L215.082 11.1615L210.565 12.4806L210.455 12.5161V16.9735H203.315V14.4774C203.315 13.3363 203.607 12.4452 204.117 11.8747C204.627 11.3042 205.392 11.0187 206.339 11.0187C206.995 11.0187 207.686 11.161 208.451 11.4819L208.633 11.5891V7.55941L208.525 7.52389C207.869 7.30994 206.994 7.1673 205.865 7.1673ZM98.5065 8.62918C97.705 8.62918 97.0493 8.91487 96.5028 9.41409C95.9564 9.91332 95.6646 10.5553 95.6646 11.3398C95.6646 12.0887 95.9564 12.7301 96.5028 13.2293C97.0493 13.7285 97.705 13.978 98.5065 13.978C99.3079 13.978 100 13.6929 100.51 13.2293C101.057 12.7301 101.348 12.0887 101.348 11.3398C101.348 10.591 101.057 9.94898 100.51 9.41409C100.037 8.91487 99.3443 8.62918 98.5065 8.62918ZM84.8815 9.20028L77.6682 26.4949L76.3568 30.1318H76.248C76.0294 29.3116 75.6287 28.0636 74.9729 26.5659L67.9417 9.27132H61.0563V36.8359H65.61V19.8262C65.61 18.7564 65.6102 17.5442 65.5737 16.0465C65.5373 15.2977 65.4643 14.727 65.4279 14.2991H65.5374C65.756 15.3689 66.0106 16.1532 66.1927 16.6524L74.6449 36.7642H77.8503L86.2292 16.4741C86.4113 16.0106 86.5935 15.0836 86.7756 14.2991H86.8852C86.7759 16.3316 86.7032 18.1504 86.6668 19.2558V36.7287H91.5115V9.20028H84.8815ZM114.972 16.5104C112.823 16.5104 110.856 16.9734 109.217 17.9005C107.578 18.8276 106.266 20.1118 105.428 21.7164C104.554 23.3567 104.117 25.2467 104.117 27.4218C104.117 29.3118 104.554 30.9873 105.392 32.5206C106.23 34.0183 107.395 35.2309 108.962 36.051C110.455 36.8712 112.204 37.2991 114.171 37.2991C116.43 37.2991 118.36 36.8358 119.89 35.98L119.927 35.9445V31.6654L119.745 31.8075C119.052 32.3067 118.251 32.7349 117.45 32.9845C116.612 33.2698 115.847 33.4121 115.191 33.4121C113.297 33.4121 111.803 32.8777 110.747 31.7009C109.654 30.5598 109.107 28.991 109.107 27.0297C109.107 24.9972 109.654 23.3925 110.783 22.2158C111.912 21.039 113.406 20.4328 115.228 20.4328C116.758 20.4328 118.324 20.9318 119.745 21.9302L119.927 22.073V17.5439L119.89 17.5084C119.271 17.2588 118.579 16.9735 117.632 16.7952C116.758 16.6169 115.847 16.5104 114.972 16.5104ZM166.302 16.5104C164.044 16.5104 162.185 17.0448 160.728 18.2216C159.271 19.327 158.579 20.8251 158.579 22.5724C158.579 23.4995 158.725 24.3192 159.053 24.9968C159.38 25.6743 159.854 26.3166 160.51 26.8514C161.166 27.3507 162.113 27.9212 163.424 28.4561C164.517 28.9197 165.355 29.2761 165.865 29.5614C166.375 29.8467 166.703 30.1677 166.958 30.4173C167.14 30.7026 167.249 31.0591 167.249 31.5226C167.249 32.842 166.229 33.4839 164.153 33.4839C163.351 33.4839 162.514 33.3409 161.53 33.02C160.546 32.6991 159.635 32.2358 158.87 31.7009L158.688 31.5581V36.0865L158.798 36.1228C159.49 36.4437 160.328 36.6574 161.348 36.907C162.368 37.0853 163.279 37.228 164.08 37.228C166.521 37.228 168.524 36.6929 169.945 35.5161C171.402 34.3751 172.167 32.9132 172.167 31.0233C172.167 29.7039 171.803 28.5271 171.002 27.6357C169.945 26.7798 168.633 25.8882 166.739 25.1751C165.246 24.5689 164.299 24.1054 163.862 23.7132C163.497 23.3566 163.315 22.8576 163.315 22.2158C163.315 21.6809 163.534 21.146 164.08 20.7894C164.627 20.4328 165.246 20.2545 166.156 20.2545C166.958 20.2545 167.796 20.3972 168.598 20.6111C169.399 20.8251 170.127 21.1457 170.71 21.5736L170.892 21.7164V17.3656L170.783 17.3301C170.237 17.1161 169.508 16.9025 168.634 16.7242C167.76 16.5815 166.958 16.5104 166.302 16.5104ZM146.156 16.5459C142.841 16.5459 140.182 17.5087 138.324 19.3986C136.43 21.2885 135.519 23.8912 135.519 27.1718C135.519 30.2385 136.466 32.735 138.288 34.5536C140.109 36.3366 142.587 37.2636 145.683 37.2636C148.925 37.2636 151.512 36.3009 153.37 34.3753C155.264 32.4497 156.174 29.8823 156.174 26.7087C156.174 23.5707 155.301 21.0744 153.516 19.2558C151.803 17.4372 149.289 16.5459 146.156 16.5459ZM184.663 16.5459C181.348 16.5459 178.689 17.5087 176.831 19.3986C174.973 21.2885 174.025 23.8912 174.025 27.1718C174.025 30.2385 174.973 32.735 176.794 34.5536C178.616 36.3366 181.093 37.2636 184.189 37.2636C187.431 37.2636 190.018 36.3009 191.876 34.3753C193.77 32.4497 194.681 29.8823 194.681 26.7087C194.681 23.5707 193.807 21.0744 192.022 19.2558C190.309 17.4372 187.796 16.5459 184.663 16.5459ZM133.261 16.6524C132.095 16.6524 131.002 17.0096 130.055 17.7584C129.253 18.4003 128.707 19.3274 128.233 20.4328H128.197V16.9735H123.461V36.7287H128.197V26.6369C128.197 24.9253 128.561 23.4992 129.362 22.4651C130.164 21.3953 131.184 20.8605 132.423 20.8605C132.86 20.8605 133.297 20.9674 133.843 21.0388C134.353 21.1814 134.718 21.3243 134.973 21.5026L135.155 21.6447V17.009L135.045 16.9735C134.717 16.7596 134.062 16.6524 133.261 16.6524ZM96.1022 16.9735V36.7287H100.838V16.9735H96.1022ZM145.938 20.3611C147.614 20.3611 148.925 20.8958 149.873 22.0013C150.82 23.1067 151.33 24.7113 151.33 26.8152C151.257 28.9548 150.856 30.631 149.945 31.7364C149.071 32.8419 147.686 33.3766 145.974 33.3766C144.262 33.3766 142.878 32.8421 141.894 31.6654C140.911 30.56 140.437 28.955 140.437 26.9225C140.437 24.8186 140.947 23.2141 141.894 22.073C142.878 20.9319 144.226 20.3611 145.938 20.3611ZM184.408 20.3611C186.047 20.3611 187.395 20.8958 188.342 22.0013C189.289 23.1067 189.8 24.7113 189.8 26.8152C189.8 28.9548 189.326 30.631 188.415 31.7364C187.541 32.8419 186.157 33.3766 184.445 33.3766C182.696 33.3766 181.348 32.8421 180.364 31.6654C179.38 30.56 178.907 28.955 178.907 26.9225C178.907 24.8186 179.417 23.2141 180.364 22.073C181.348 20.9319 182.695 20.3611 184.408 20.3611ZM0 24.1408V46H22.3318V24.1408H0ZM24.6627 24.1408V46H46.9945V24.1408H24.6627Z" fill="white" fill-opacity="0.56"/>
</svg>
