<svg width="36" height="35" viewBox="0 0 36 35" fill="none" xmlns="http://www.w3.org/2000/svg">
<path d="M27 12.0312C26.325 12.3594 25.65 12.4688 24.8625 12.5781C25.65 12.1406 26.2125 11.4844 26.4375 10.6094C25.7625 11.0469 24.975 11.2656 24.075 11.4844C23.4 10.8281 22.3875 10.3906 21.375 10.3906C19.0125 10.3906 17.2125 12.5781 17.775 14.7656C14.7375 14.6562 12.0375 13.2344 10.125 11.0469C9.1125 12.6875 9.675 14.7656 11.25 15.8594C10.6875 15.8594 10.125 15.6406 9.5625 15.4219C9.5625 17.0625 10.8 18.5938 12.4875 19.0312C11.925 19.1406 11.3625 19.25 10.8 19.1406C11.25 20.5625 12.6 21.6562 14.2875 21.6562C12.9375 22.6406 10.9125 23.1875 9 22.9688C10.6875 23.9531 12.6 24.6094 14.625 24.6094C21.4875 24.6094 25.3125 19.0312 25.0875 13.8906C25.875 13.4531 26.55 12.7969 27 12.0312Z" fill="white"/>
</svg>
