<svg width="142" height="46" viewBox="0 0 142 46" fill="none" xmlns="http://www.w3.org/2000/svg">
<path d="M0 10.2439H5.77791V24.406C5.77791 28.0649 8.48631 29.8485 11.0298 29.8485C13.5954 29.8485 16.2833 28.0174 16.2833 24.3569V10.2439H22.0613V24.7434C22.0613 28.1141 21.0109 30.7149 18.9101 32.4984C16.8078 34.2804 14.1826 35.1484 10.9812 35.1484C7.78291 35.1484 5.15616 34.2819 3.10406 32.4984C1.05039 30.7165 0 28.2123 0 24.8875V10.2439ZM72.0135 27.8448C70.2644 29.4161 68.272 30.1859 66.0001 30.1859C61.855 30.1859 59.076 27.8036 58.762 24.1146H77.4303C77.4303 24.1146 77.5559 22.9235 77.5559 21.8052C77.5559 18.3363 76.4568 15.4456 74.2116 13.0856C72.0166 10.7255 69.1528 9.56919 65.6656 9.56919C61.9901 9.56919 58.9802 10.7255 56.5921 13.0856C54.2527 15.4456 53.0594 18.528 53.0594 22.3833V22.5734C53.0594 26.3796 54.2527 29.4145 56.5921 31.6795C58.9315 33.943 62.0356 35.0993 65.8085 35.0993C70.1953 35.0993 73.6856 33.3538 76.3045 30.3443L72.0135 27.8448ZM61.0323 16.0238C62.3198 15.0116 63.8977 14.4826 65.6641 14.4826C67.3346 14.4826 68.7195 15.0116 69.9143 16.0729C71.0542 17.0391 71.6696 18.2255 71.723 19.5892H58.9096C59.0948 18.1795 59.8014 16.9916 61.0339 16.0254L61.0323 16.0238ZM130.176 38.3717C127.832 43.9551 125.379 45.8543 121.619 45.8543H119.012V40.6874H121.119C122.413 40.6874 123.616 40.1964 124.762 37.529L125.908 34.8585L116.023 10.2439H121.897L128.916 27.9715L136.128 10.2439H142L130.177 38.3717H130.176ZM44.5543 0.947754V12.4425C42.6608 10.7318 39.7153 9.71332 36.8671 9.71332C33.4758 9.71332 30.6119 10.9171 28.2725 13.3722C25.9802 15.7814 24.834 18.7672 24.834 22.3802C24.834 25.9947 25.9802 28.9805 28.2725 31.4372C30.6119 33.8464 33.4773 35.0518 36.8671 35.0518C40.7767 35.0518 43.248 33.5011 44.5543 32.2862V34.5211H50.2851V0.949338H44.5543V0.947754ZM42.835 27.6816C41.4502 29.0787 39.6839 29.8025 37.6302 29.8025C35.5765 29.8025 33.906 29.0787 32.5212 27.6816C31.1866 26.2846 30.5162 24.5027 30.5162 22.3833C30.5162 20.2624 31.185 18.4805 32.5212 17.0834C33.906 15.6864 35.5765 14.9641 37.6302 14.9641C39.6839 14.9641 41.4502 15.6864 42.835 17.0834C44.267 18.4805 44.9861 20.2624 44.9861 22.3833C44.9861 24.5027 44.267 26.2846 42.835 27.6816ZM107.114 9.76243C102.762 9.76243 100.5 11.584 98.9499 13.339C98.3297 12.1463 96.5837 9.76243 92.5047 9.76243C89.0568 9.76243 87.0251 11.5206 86.0108 12.7719V10.2471H80.3302V34.5243H86.0108V20.5539C86.0108 17.2783 88.0174 14.9182 90.6896 14.9182C93.4137 14.9182 94.9885 16.99 94.9885 20.3131V34.5227H100.671V20.5523C100.671 17.2292 102.627 14.9166 105.444 14.9166C108.166 14.9166 109.741 16.9884 109.741 20.3099V34.5211H115.472V19.4926C115.472 13.1632 112.099 9.76401 107.114 9.76401V9.76243Z" fill="white"/>
</svg>
