<svg width="230" height="59" viewBox="0 0 230 59" fill="none" xmlns="http://www.w3.org/2000/svg">
<g filter="url(#filter0_d_411_6779)">
<path fill-rule="evenodd" clip-rule="evenodd" d="M29.0731 0C15.2468 0 4 11.2909 4 25.168C4 39.0485 15.2468 50.3395 29.0731 50.3395C42.896 50.3395 54.1463 39.0485 54.1463 25.168C54.1463 11.2909 42.896 0 29.0731 0ZM29.0731 49.1885C15.8822 49.1885 5.14989 38.4141 5.14989 25.168C5.14989 11.9288 15.8822 1.1544 29.0731 1.1544C42.2606 1.1544 52.9929 11.9288 52.9929 25.168C52.9929 38.4141 42.2606 49.1885 29.0731 49.1885ZM29.4495 27.0573L22.9956 45.8848C24.9225 46.4533 26.9598 46.7619 29.0731 46.7619C31.5767 46.7619 33.98 46.3285 36.2142 45.5381C36.1555 45.448 36.1037 45.3475 36.0623 45.2435L29.4495 27.0573ZM7.56362 25.168C7.56362 33.7168 12.512 41.1043 19.6841 44.6021L9.42486 16.3835C8.23353 19.0667 7.56362 22.0376 7.56362 25.168ZM47.9445 14.8096C48.0377 15.4995 48.0895 16.2379 48.0895 17.0317C48.0895 19.2227 47.682 21.684 46.4527 24.7659L39.8849 43.8325C46.2801 40.092 50.5792 33.1344 50.5792 25.1715C50.5792 21.4171 49.6261 17.8845 47.9445 14.8096ZM204.103 36.6947C202.159 36.6947 200.457 35.672 199.728 35.0376C199.483 35.2803 199.048 36.0117 198.951 36.6947H198.026V29.9624H199C199.397 33.1829 201.624 35.0861 204.49 35.0861C206.061 35.0861 207.322 34.2091 207.322 32.7461C207.322 31.4773 206.199 30.4997 204.214 29.5741L201.448 28.2568C199.497 27.3277 198.043 25.7192 198.043 23.5733C198.043 21.2299 200.236 19.2296 203.245 19.2296C204.851 19.2296 206.206 19.8155 207.032 20.4984C207.273 20.3043 207.515 19.7669 207.664 19.1811H208.586V24.9392H207.567C207.227 22.6443 205.961 20.7411 203.389 20.7411C202.03 20.7411 200.764 21.5211 200.764 22.7413C200.764 24.0101 201.783 24.6931 204.119 25.7677L206.79 27.0851C209.121 28.2083 210.043 30.0144 210.043 31.4773C210.043 34.5488 207.367 36.6947 204.121 36.6947H204.103ZM94.755 36.6947C89.4096 36.6947 85.0345 32.7427 85.0345 27.9136C85.0345 23.1331 89.4096 19.1811 94.755 19.1811C100.1 19.1811 104.476 23.1331 104.476 27.9136C104.476 32.7427 100.1 36.6947 94.755 36.6947ZM219.068 36.6947C217.125 36.6947 215.424 35.672 214.699 35.0376C214.452 35.2803 214.017 36.0117 213.922 36.6947H212.995V29.9624H213.969C214.366 33.1829 216.593 35.0861 219.459 35.0861C221.013 35.0861 222.291 34.2091 222.291 32.7461C222.291 31.4773 221.179 30.4997 219.183 29.5741L216.416 28.2568C214.471 27.3277 213.014 25.7192 213.014 23.5733C213.014 21.2299 215.2 19.2296 218.211 19.2296C219.817 19.2296 221.176 19.8155 222.004 20.4984C222.246 20.3043 222.488 19.7669 222.636 19.1811H223.558V24.9392H222.54C222.2 22.6443 220.934 20.7411 218.361 20.7411C216.997 20.7411 215.737 21.5211 215.737 22.7413C215.737 24.0101 216.756 24.6931 219.087 25.7677L221.763 27.0851C224.094 28.2083 225.017 30.0144 225.017 31.4773C225.017 34.5488 222.341 36.6947 219.087 36.6947H219.068ZM154.142 35.0861V36.0637H143.012V35.0861C146.269 35.0861 146.852 34.2576 146.852 29.3765V21.5696C146.852 16.692 146.269 15.912 143.012 15.912V14.9344H153.075C158.078 14.9344 160.851 17.5205 160.851 20.9872C160.851 24.3533 158.078 26.988 153.075 26.988H150.302V29.3765C150.302 34.2576 150.886 35.0861 154.142 35.0861ZM94.755 20.6925C90.2832 20.6925 88.7293 24.7416 88.7293 27.9136C88.7293 31.1341 90.2832 35.1347 94.755 35.1347C99.2752 35.1347 100.829 31.1341 100.829 27.9136C100.829 24.7416 99.2752 20.6925 94.755 20.6925ZM132.177 19.8155H123.478V20.7411C126.199 20.7411 126.634 21.3269 126.634 24.7901V31.0371C126.634 34.5003 126.199 35.1347 123.478 35.1347C121.389 34.8435 119.977 33.7203 118.033 31.5744L115.798 29.1339C118.81 28.5965 120.415 26.6933 120.415 24.5475C120.415 21.8643 118.133 19.8155 113.854 19.8155H105.301V20.7411C108.022 20.7411 108.46 21.3269 108.46 24.7901V31.0371C108.46 34.5003 108.022 35.1347 105.301 35.1347V36.0637H114.973V35.1347C112.252 35.1347 111.813 34.5003 111.813 31.0371V29.2795H112.639L118.033 36.0637H132.177C139.128 36.0637 142.139 32.3544 142.139 27.9136C142.139 23.4728 139.128 19.8155 132.177 19.8155ZM194.238 31.4773L193.993 32.3544C193.561 33.9629 193.026 34.5488 189.573 34.5488H188.899C186.379 34.5488 185.943 33.9629 185.943 30.4997V28.2568C189.735 28.2568 190.025 28.5965 190.025 31.1341H190.95V23.8645H190.022C190.022 26.4021 189.732 26.7419 185.94 26.7419V21.2784H188.613C192.066 21.2784 192.601 21.8643 193.04 23.4728L193.281 24.4019H194.058L193.716 19.8155H179.42V20.7411C182.14 20.7411 182.58 21.3269 182.58 24.7901V31.0371C182.58 34.2056 182.205 35.0029 180.059 35.1173C178.019 34.8053 176.623 33.6891 174.707 31.5744L172.468 29.1339C175.482 28.5965 177.083 26.6933 177.083 24.5475C177.083 21.8643 174.804 19.8155 170.522 19.8155H161.975V20.7411C164.696 20.7411 165.135 21.3269 165.135 24.7901V31.0371C165.135 34.5003 164.7 35.1347 161.975 35.1347V36.0637H171.647V35.1347C168.926 35.1347 168.488 34.5003 168.488 31.0371V29.2795H169.317L174.71 36.0637H194.68L194.973 31.4773H194.248H194.238ZM132.323 34.5488H131.983C130.232 34.5488 129.991 34.112 129.991 31.8656V21.2784H132.322C137.377 21.2784 138.299 24.9877 138.299 27.8651C138.299 30.8429 137.379 34.5488 132.323 34.5488ZM78.2301 29.5741L81.5848 19.6179C82.5551 16.7405 82.12 15.912 79.0088 15.912V14.9344H88.1458V15.912C85.0828 15.912 84.3542 16.6435 83.1387 20.2037L77.5999 36.8923H76.968L72.0093 21.6181L66.9574 36.8923H66.3255L60.9282 20.2037C59.7645 16.6435 58.9841 15.912 56.1664 15.912V14.9344H66.9574V15.912C64.0878 15.912 63.3109 16.5949 64.3295 19.6179L67.5858 29.5741L72.4962 14.9344H73.4182L78.2301 29.5741ZM111.812 27.768H113.809C115.995 27.768 116.969 26.2565 116.969 24.5475C116.969 22.7899 115.995 21.2784 113.809 21.2784H111.817V27.768H111.812ZM168.478 27.768H170.472C172.661 27.768 173.631 26.2565 173.631 24.5475C173.631 22.7899 172.661 21.2784 170.472 21.2784H168.479L168.478 27.768ZM153.077 16.692H150.302V25.1819H153.075C155.796 25.1819 157.06 23.2787 157.06 20.9872C157.06 18.6437 155.798 16.692 153.077 16.692ZM43.5953 24.0795C43.5953 21.4101 42.637 19.5624 41.8169 18.1237C40.7292 16.3453 39.7053 14.8408 39.7053 13.0624C39.7053 11.076 41.204 9.22827 43.3173 9.22827C43.414 9.22827 43.5037 9.24213 43.597 9.2456C39.7709 5.72693 34.6707 3.5776 29.0731 3.5776C21.5591 3.5776 14.9464 7.44987 11.1031 13.312C11.6072 13.3259 12.0803 13.3363 12.4843 13.3363C14.7358 13.3363 18.2165 13.0624 18.2165 13.0624C19.3768 12.9931 19.5149 14.7021 18.3546 14.8408C18.3546 14.8408 17.1909 14.9795 15.8926 15.0453L23.7277 38.4349L28.4343 24.2632L25.0813 15.0453C23.9245 14.976 22.8264 14.8408 22.8264 14.8408C21.6662 14.7715 21.8043 12.9931 22.9611 13.0624C22.9611 13.0624 26.5144 13.3363 28.6277 13.3363C30.8757 13.3363 34.3599 13.0624 34.3599 13.0624C35.5201 12.9931 35.6582 14.7021 34.498 14.8408C34.498 14.8408 33.3308 14.976 32.0359 15.0453L39.8089 38.2581L41.9533 31.0613C42.8856 28.0731 43.5935 25.9272 43.5935 24.0795H43.5953Z" fill="white" fill-opacity="0.56" shape-rendering="crispEdges"/>
</g>
<defs>
<filter id="filter0_d_411_6779" x="0" y="0" width="229.017" height="58.3394" filterUnits="userSpaceOnUse" color-interpolation-filters="sRGB">
<feFlood flood-opacity="0" result="BackgroundImageFix"/>
<feColorMatrix in="SourceAlpha" type="matrix" values="0 0 0 0 0 0 0 0 0 0 0 0 0 0 0 0 0 0 127 0" result="hardAlpha"/>
<feOffset dy="4"/>
<feGaussianBlur stdDeviation="2"/>
<feComposite in2="hardAlpha" operator="out"/>
<feColorMatrix type="matrix" values="0 0 0 0 0 0 0 0 0 0 0 0 0 0 0 0 0 0 0.25 0"/>
<feBlend mode="normal" in2="BackgroundImageFix" result="effect1_dropShadow_411_6779"/>
<feBlend mode="normal" in="SourceGraphic" in2="effect1_dropShadow_411_6779" result="shape"/>
</filter>
</defs>
</svg>
