<svg width="177" height="52" viewBox="0 0 177 52" fill="none" xmlns="http://www.w3.org/2000/svg">
<path d="M37.878 18.2722H19.8948V23.6889H32.6388C32.0016 31.3444 25.7712 34.5944 19.8948 34.5944C12.39 34.5944 5.8056 28.5278 5.8056 20.0778C5.8056 11.8444 12.036 5.48889 19.8948 5.48889C25.9128 5.48889 29.5236 9.38889 29.5236 9.38889L33.276 5.41667C33.276 5.41667 28.4616 0 19.7532 0C8.6376 0.0722222 0 9.67778 0 20.0056C0 30.1889 8.0712 40.0833 20.0364 40.0833C30.5148 40.0833 38.232 32.7167 38.232 21.8833C38.232 19.5722 37.878 18.2722 37.878 18.2722ZM52.6044 14.3722C45.2412 14.3722 39.9312 20.2222 39.9312 27.1556C39.9312 34.0889 45.0288 40.0833 52.6752 40.0833C59.5428 40.0833 65.2068 34.6667 65.2068 27.3C65.2776 18.7056 58.6932 14.3722 52.6044 14.3722ZM52.6752 19.4278C56.286 19.4278 59.7552 22.3889 59.7552 27.2278C59.7552 31.9222 56.3568 35.0278 52.6752 35.0278C48.6396 35.0278 45.4536 31.7778 45.4536 27.2278C45.4536 22.75 48.6396 19.4278 52.6752 19.4278ZM80.1456 14.3722C72.7824 14.3722 67.4724 20.2222 67.4724 27.1556C67.4724 34.0889 72.57 40.0833 80.2164 40.0833C87.084 40.0833 92.748 34.6667 92.748 27.3C92.8188 18.7056 86.2344 14.3722 80.1456 14.3722ZM80.2164 19.4278C83.8272 19.4278 87.2964 22.3889 87.2964 27.2278C87.2964 31.9222 83.898 35.0278 80.2164 35.0278C76.1808 35.0278 72.9948 31.7778 72.9948 27.2278C73.0656 22.75 76.1808 19.4278 80.2164 19.4278ZM107.191 14.3722C100.394 14.3722 95.0844 20.4389 95.0844 27.2278C95.0844 34.9556 101.244 40.0833 107.05 40.0833C110.66 40.0833 112.572 38.6389 113.988 36.9778V39.5056C113.988 43.9111 111.368 46.5833 107.333 46.5833C103.51 46.5833 101.527 43.6944 100.89 42.0333L96.0756 44.1278C97.7748 47.8111 101.244 51.7111 107.404 51.7111C114.13 51.7111 119.298 47.3778 119.298 38.2778V15.1667H113.988V17.3333C112.36 15.5278 110.165 14.3722 107.191 14.3722ZM107.687 19.4278C111.014 19.4278 114.413 22.3167 114.413 27.2278C114.413 32.2833 111.014 35.0278 107.616 35.0278C104.005 35.0278 100.678 32.0667 100.678 27.3C100.607 22.3167 104.147 19.4278 107.687 19.4278ZM142.733 14.3C136.361 14.3 130.98 19.5 130.98 27.1556C130.98 35.2444 136.927 40.0833 143.37 40.0833C148.68 40.0833 152.008 37.1222 153.919 34.45L149.53 31.4889C148.397 33.2944 146.485 35.0278 143.37 35.0278C139.83 35.0278 138.202 33.0778 137.21 31.1278L154.132 23.9778L153.282 21.8833C151.583 17.7667 147.76 14.3 142.733 14.3ZM142.945 19.2833C145.282 19.2833 146.91 20.5111 147.618 22.0278L136.361 26.8667C135.865 23.1111 139.334 19.2833 142.945 19.2833ZM122.98 39.2889H128.502V1.44444H122.98V39.2889ZM177 20.2222H170.203V13.2889H164.681V20.2222H157.884V25.8556H164.681V32.7889H170.203V25.8556H177V20.2222Z" fill="white" fill-opacity="0.56"/>
</svg>
