<svg width="27" height="20" viewBox="0 0 27 20" fill="none" xmlns="http://www.w3.org/2000/svg">
<path d="M9.95115 2.66075e-05C10.2285 2.66317e-05 10.5058 0.102201 10.7248 0.32115C11.1481 0.744448 11.1481 1.44508 10.7248 1.86838L2.6383 9.95484L10.7248 18.0413C11.1481 18.4646 11.1481 19.1652 10.7248 19.5885C10.3015 20.0118 9.60083 20.0118 9.17753 19.5885L0.317455 10.7285C-0.105844 10.3052 -0.105844 9.60452 0.317455 9.18123L9.17753 0.32115C9.39648 0.102201 9.67381 2.65832e-05 9.95115 2.66075e-05Z" fill="#F78D2B"/>
<path d="M1.33935 8.86008L25.9053 8.86009C26.5037 8.86009 27 9.35637 27 9.95482C27 10.5533 26.5037 11.0496 25.9053 11.0496L1.33935 11.0496C0.740894 11.0496 0.244614 10.5533 0.244614 9.95482C0.244614 9.35636 0.740895 8.86008 1.33935 8.86008Z" fill="#F78D2B"/>
</svg>
