<svg width="36" height="35" viewBox="0 0 36 35" fill="none" xmlns="http://www.w3.org/2000/svg">
<path d="M18.0001 10.0625C20.4751 10.0625 20.8126 10.0625 21.8251 10.0625C22.7251 10.0625 23.1751 10.2813 23.5126 10.3906C23.9626 10.6094 24.3001 10.7188 24.6376 11.0469C24.9751 11.375 25.2001 11.7031 25.3126 12.1406C25.4251 12.4688 25.5376 12.9063 25.6501 13.7813C25.6501 14.7656 25.6501 14.9844 25.6501 17.5C25.6501 20.0156 25.6501 20.2344 25.6501 21.2188C25.6501 22.0938 25.4251 22.5313 25.3126 22.8594C25.0876 23.2969 24.9751 23.625 24.6376 23.9531C24.3001 24.2813 23.9626 24.5 23.5126 24.6094C23.1751 24.7188 22.7251 24.8281 21.8251 24.9375C20.8126 24.9375 20.5876 24.9375 18.0001 24.9375C15.4126 24.9375 15.1876 24.9375 14.1751 24.9375C13.2751 24.9375 12.8251 24.7188 12.4876 24.6094C12.0376 24.3906 11.7001 24.2813 11.3626 23.9531C11.0251 23.625 10.8001 23.2969 10.6876 22.8594C10.5751 22.5313 10.4626 22.0938 10.3501 21.2188C10.3501 20.2344 10.3501 20.0156 10.3501 17.5C10.3501 14.9844 10.3501 14.7656 10.3501 13.7813C10.3501 12.9063 10.5751 12.4688 10.6876 12.1406C10.9126 11.7031 11.0251 11.375 11.3626 11.0469C11.7001 10.7188 12.0376 10.5 12.4876 10.3906C12.8251 10.2813 13.2751 10.1719 14.1751 10.0625C15.1876 10.0625 15.5251 10.0625 18.0001 10.0625ZM18.0001 8.42188C15.4126 8.42188 15.1876 8.42188 14.1751 8.42188C13.1626 8.42188 12.4876 8.64063 11.9251 8.85938C11.3626 9.07813 10.8001 9.40625 10.2376 9.95313C9.6751 10.5 9.4501 10.9375 9.1126 11.5938C8.8876 12.1406 8.7751 12.7969 8.6626 13.7813C8.6626 14.7656 8.6626 15.0938 8.6626 17.5C8.6626 20.0156 8.6626 20.2344 8.6626 21.2188C8.6626 22.2031 8.8876 22.8594 9.1126 23.4063C9.3376 23.9531 9.6751 24.5 10.2376 25.0469C10.8001 25.5938 11.2501 25.8125 11.9251 26.1406C12.4876 26.3594 13.1626 26.4688 14.1751 26.5781C15.1876 26.5781 15.5251 26.5781 18.0001 26.5781C20.4751 26.5781 20.8126 26.5781 21.8251 26.5781C22.8376 26.5781 23.5126 26.3594 24.0751 26.1406C24.6376 25.9219 25.2001 25.5938 25.7626 25.0469C26.3251 24.5 26.5501 24.0625 26.8876 23.4063C27.1126 22.8594 27.2251 22.2031 27.3376 21.2188C27.3376 20.2344 27.3376 19.9063 27.3376 17.5C27.3376 15.0938 27.3376 14.7656 27.3376 13.7813C27.3376 12.7969 27.1126 12.1406 26.8876 11.5938C26.6626 11.0469 26.3251 10.5 25.7626 9.95313C25.2001 9.40625 24.7501 9.1875 24.0751 8.85938C23.5126 8.64063 22.8376 8.53125 21.8251 8.42188C20.8126 8.42188 20.5876 8.42188 18.0001 8.42188Z" fill="white"/>
<path d="M18.0001 12.7969C15.3001 12.7969 13.1626 14.875 13.1626 17.5C13.1626 20.125 15.3001 22.2031 18.0001 22.2031C20.7001 22.2031 22.8376 20.125 22.8376 17.5C22.8376 14.875 20.7001 12.7969 18.0001 12.7969ZM18.0001 20.5625C16.3126 20.5625 14.8501 19.25 14.8501 17.5C14.8501 15.8594 16.2001 14.4375 18.0001 14.4375C19.6876 14.4375 21.1501 15.75 21.1501 17.5C21.1501 19.1406 19.6876 20.5625 18.0001 20.5625Z" fill="white"/>
<path d="M22.9501 13.7813C23.5714 13.7813 24.0751 13.2916 24.0751 12.6875C24.0751 12.0834 23.5714 11.5938 22.9501 11.5938C22.3288 11.5938 21.8251 12.0834 21.8251 12.6875C21.8251 13.2916 22.3288 13.7813 22.9501 13.7813Z" fill="white"/>
</svg>
